<?xml version="1.0" standalone="no"?>
<!DOCTYPE svg PUBLIC "-//W3C//DTD SVG 20010904//EN"
 "http://www.w3.org/TR/2001/REC-SVG-20010904/DTD/svg10.dtd">
<svg version="1.0" xmlns="http://www.w3.org/2000/svg"
 width="130.000000pt" height="130.000000pt" viewBox="0 0 130.000000 130.000000"
 preserveAspectRatio="xMidYMid meet">
<metadata>
Created by potrace 1.11, written by Peter Selinger 2001-2013
</metadata>
<g transform="translate(0.000000,130.000000) scale(0.100000,-0.100000)"
fill="#000000" stroke="none">
<path d="M518 1226 c-119 -32 -194 -151 -168 -268 21 -98 156 -260 325 -389
101 -77 97 -77 168 -26 140 101 280 243 332 338 51 94 42 193 -22 269 -91 106
-220 112 -329 16 l-51 -45 -29 30 c-66 70 -146 96 -226 75z m106 -70 c19 -8
56 -37 82 -65 27 -28 57 -51 67 -51 11 0 48 27 83 60 66 61 109 79 156 65 47
-15 89 -48 109 -88 55 -108 -23 -241 -248 -424 -108 -88 -85 -91 -231 31 -140
118 -232 244 -232 319 0 81 79 162 163 166 10 1 33 -5 51 -13z"/>
<path d="M275 545 c-27 -9 -74 -19 -102 -23 -87 -14 -93 -24 -93 -167 0 -169
-1 -168 156 -175 l119 -6 108 -57 108 -57 170 0 c122 0 179 4 203 14 24 10 65
56 155 177 137 184 145 207 90 253 -52 44 -78 36 -183 -61 l-69 -63 -66 6
c-147 13 -182 23 -260 76 -41 28 -92 59 -115 69 -59 26 -160 32 -221 14z m167
-65 c21 -6 77 -38 125 -70 92 -63 126 -74 263 -88 57 -5 75 -11 78 -23 3 -19
-68 -29 -203 -29 -82 0 -83 0 -159 50 -81 53 -97 58 -115 36 -18 -22 -5 -38
82 -96 l82 -55 154 2 c198 2 231 15 231 91 0 22 15 43 69 95 66 64 101 83 101
53 0 -12 -150 -222 -210 -293 -18 -22 -24 -23 -192 -23 -157 0 -176 2 -207 21
-19 11 -66 37 -105 57 -65 33 -79 36 -178 40 l-108 5 0 97 0 98 45 7 c25 3 63
12 83 20 45 17 114 18 164 5z"/>
</g>
</svg>
